<?xml version="1.0" encoding="UTF-8" standalone="no"?>
<!-- Created with Inkscape (http://www.inkscape.org/) -->

<svg
   width="128"
   height="128"
   id="svg2"
   version="1.1"
   inkscape:version="1.4.3 (0d15f75, 2025-12-25)"
   sodipodi:docname="timesig_prolatio06.svg"
   xmlns:inkscape="http://www.inkscape.org/namespaces/inkscape"
   xmlns:sodipodi="http://sodipodi.sourceforge.net/DTD/sodipodi-0.dtd"
   xmlns="http://www.w3.org/2000/svg"
   xmlns:svg="http://www.w3.org/2000/svg"
   xmlns:rdf="http://www.w3.org/1999/02/22-rdf-syntax-ns#"
   xmlns:cc="http://creativecommons.org/ns#"
   xmlns:dc="http://purl.org/dc/elements/1.1/">
  <defs
     id="defs4" />
  <sodipodi:namedview
     id="base"
     pagecolor="#ffffff"
     bordercolor="#666666"
     borderopacity="1.0"
     inkscape:pageopacity="0.0"
     inkscape:pageshadow="2"
     inkscape:zoom="7.9999996"
     inkscape:cx="57.750003"
     inkscape:cy="45.312502"
     inkscape:document-units="px"
     inkscape:current-layer="layer1"
     showgrid="true"
     inkscape:window-width="1920"
     inkscape:window-height="1129"
     inkscape:window-x="-8"
     inkscape:window-y="-8"
     inkscape:window-maximized="1"
     inkscape:snap-grids="true"
     inkscape:showpageshadow="0"
     inkscape:pagecheckerboard="0"
     inkscape:deskcolor="#d1d1d1">
    <inkscape:grid
       empspacing="5"
       visible="true"
       enabled="true"
       snapvisiblegridlinesonly="true"
       type="xygrid"
       id="grid3085"
       originx="0"
       originy="0"
       spacingy="1"
       spacingx="1"
       units="px" />
  </sodipodi:namedview>
  <metadata
     id="metadata7">
    <rdf:RDF>
      <cc:Work
         rdf:about="">
        <dc:format>image/svg+xml</dc:format>
        <dc:type
           rdf:resource="http://purl.org/dc/dcmitype/StillImage" />
      </cc:Work>
    </rdf:RDF>
  </metadata>
  <g
     inkscape:label="Layer 1"
     inkscape:groupmode="layer"
     id="layer1"
     transform="translate(0,-924.36218)">
    <g
       id="g4099"
       transform="matrix(0.15,0,0,-0.15,30,988.36218)">
      <path
         id="path4101"
         d="m 256,268 c 26,0 50,-5.33333 72,-16 22.66667,-10.66667 40.66667,-24 54,-40 13.33333,-16 24.66667,-32.66667 34,-50 9.33333,-17.33333 16.33333,-32.66667 21,-46 4,-12 6,-20.666667 6,-26 0,-8 -4.33333,-12 -13,-12 -6,0 -10,3.333333 -12,10 -13.33333,46 -33,82.66667 -59,110 -28.66667,30 -63,45 -103,45 -58.66667,0 -99.33333,-19 -122,-57 C 111.33333,148 100,103.33333 100,52 V -52 c 0,-82.66667 16,-135.33333 48,-158 32,-22.66667 68,-34 108,-34 38.66667,0 72.66667,14.66667 102,44 29.33333,29.33333 49.33333,66.33333 60,111 2,6.666667 6,10 12,10 8.66667,0 13,-4 13,-12 0,-6 -2,-15 -6,-27 -4.66667,-12 -11.66667,-26.66667 -21,-44 -9.33333,-17.33333 -20.66667,-34.33333 -34,-51 -12.66667,-15.33333 -30.66667,-28.66667 -54,-40 -22,-10.66667 -46,-16 -72,-16 -32.66667,0 -63.33333,4.33333 -92,13 -27.33333,8 -54.33333,22.66667 -81,44 -26,20 -46.333333,48 -61,84 C 7.3333333,-92 0,-49.333333 0,0 c 0,80 22,144.66667 66,194 44,49.33333 107.33333,74 190,74 z"
         inkscape:connector-curvature="0"
         style="fill:#3b3f45"
         sodipodi:nodetypes="scsscssccssssssscsscsccsccssss" />
    </g>
  </g>
</svg>
